
<svg viewBox="0 0 752 752">
    <g transform="translate(-100.000000,852.000000) scale(0.12500000,-0.12500000)"
    fill="currentColor" stroke="none">
    <path
        d="M3540 6124 c-607 -73 -1088 -305 -1485 -715 -347 -359 -558 -784
-642 -1294 -26 -156 -26 -554 0 -710 88 -529 321 -985 688 -1341 366 -354 791
-566 1304 -651 155 -25 553 -25 710 0 531 87 989 324 1350 698 346 358 559
788 642 1294 26 156 26 554 0 710 -84 508 -296 935 -642 1294 -358 370 -803
604 -1320 692 -91 16 -174 22 -345 24 -124 2 -241 1 -260 -1z m535 -173 c298
-45 559 -137 819 -291 47 -28 86 -53 86 -55 0 -2 -9 -19 -20 -37 -34 -59 -53
-155 -47 -246 13 -221 188 -396 409 -409 92 -6 187 13 247 48 42 25 36 31 117
-113 190 -334 284 -692 284 -1083 0 -400 -93 -757 -284 -1093 -81 -144 -75
-138 -117 -113 -60 35 -155 54 -247 48 -221 -13 -396 -188 -409 -409 -6 -92
13 -187 48 -247 25 -42 31 -36 -113 -117 -244 -139 -511 -229 -796 -268 -148
-21 -436 -21 -584 0 -278 38 -557 132 -796 268 -144 81 -138 75 -113 117 35
60 54 155 48 247 -13 221 -188 396 -409 409 -92 6 -187 -13 -247 -48 -42 -25
-36 -31 -117 113 -191 336 -284 691 -284 1088 0 397 93 752 284 1088 81 144
75 138 117 113 60 -35 155 -54 247 -48 221 13 396 188 409 409 6 92 -13 187
-48 247 -25 42 -31 36 113 117 236 135 489 221 768 264 166 26 464 26 635 1z
m-1634 -516 c15 -54 7 -152 -16 -200 -25 -51 -89 -115 -140 -140 -56 -27 -151
-31 -214 -10 -28 9 -53 20 -56 24 -11 18 220 262 340 360 46 38 51 40 63 24 7
-10 17 -35 23 -58z m2799 -32 c83 -76 224 -225 256 -271 15 -22 14 -23 -23
-40 -26 -11 -64 -17 -118 -17 -94 0 -138 18 -200 80 -62 62 -80 106 -80 200 0
54 6 92 17 118 17 37 18 38 40 23 13 -9 61 -51 108 -93z m-2955 -2978 c51 -25
115 -89 140 -140 27 -56 31 -151 10 -214 -9 -28 -20 -53 -24 -56 -28 -17 -415
375 -392 398 39 39 195 46 266 12z m3193 1 c31 -16 32 -18 17 -39 -50 -72
-291 -313 -363 -363 -22 -15 -23 -14 -39 23 -22 51 -28 144 -14 196 24 83 99
162 186 195 43 16 173 9 213 -12z" />
    <path
        d="M3664 5455 c-180 -39 -315 -182 -347 -370 -23 -137 28 -289 132 -389
88 -84 193 -126 311 -126 118 0 223 42 311 126 104 100 155 252 132 389 -33
190 -167 331 -352 371 -80 17 -107 16 -187 -1z m225 -179 c95 -48 161 -156
161 -262 0 -99 -68 -206 -162 -256 -62 -33 -194 -33 -256 0 -94 50 -162 157
-162 256 0 131 96 253 225 287 50 13 141 1 194 -25z" />
    <path
        d="M2393 4195 c-129 -35 -240 -124 -292 -236 -132 -277 31 -590 334
-642 137 -23 289 28 389 132 61 65 90 115 111 198 27 105 14 227 -36 325 -30
58 -119 150 -177 181 -97 53 -227 69 -329 42z m211 -165 c62 -24 125 -80 158
-142 19 -35 23 -59 23 -128 0 -99 -19 -145 -86 -210 -137 -133 -366 -91 -456
84 -38 73 -38 179 0 252 69 135 222 196 361 144z" />
    <path
        d="M3655 4196 c-83 -20 -146 -56 -211 -120 -136 -137 -171 -337 -87
-514 35 -74 131 -170 205 -205 124 -59 272 -59 396 0 74 35 170 131 205 205
83 177 49 377 -87 514 -114 113 -268 157 -421 120z m201 -163 c71 -24 157
-112 178 -183 34 -115 11 -206 -72 -290 -122 -122 -281 -122 -403 -1 -121 121
-121 281 0 402 85 85 187 110 297 72z" />
    <path
        d="M4906 4194 c-79 -19 -152 -63 -213 -127 -81 -85 -123 -191 -123 -307
0 -118 42 -223 126 -311 172 -180 462 -182 639 -5 173 173 173 459 2 630 -115
115 -272 159 -431 120z m203 -161 c66 -21 134 -81 168 -147 38 -73 38 -179 0
-252 -90 -175 -319 -217 -456 -84 -67 65 -86 111 -86 210 0 69 4 93 23 128 69
130 213 190 351 145z" />
    <path
        d="M3641 2934 c-80 -21 -145 -60 -206 -125 -248 -260 -101 -689 256
-749 296 -50 561 216 511 513 -7 39 -26 100 -44 134 -35 70 -121 159 -186 192
-97 50 -226 63 -331 35z m247 -173 c93 -48 162 -156 162 -255 0 -107 -66 -213
-164 -263 -42 -22 -64 -27 -126 -27 -92 0 -157 29 -217 98 -135 153 -72 389
124 462 55 21 167 13 221 -15z" />
</g>
</svg>
