<svg viewBox="0 0 752.000000 752.000000">
    <g transform="translate(-190.000000,942.000000) scale(0.1500000,-0.1500000)" fill="currentColor" stroke="none">
        <path
            d="M3540 5799 c-773 -87 -1422 -586 -1695 -1305 -258 -680 -140 -1442
313 -2018 30 -39 101 -116 156 -171 385 -382 903 -595 1448 -595 883 0 1666
564 1942 1400 324 979 -119 2042 -1039 2491 -133 64 -303 125 -441 158 -194
45 -486 62 -684 40z m418 -100 c554 -60 1038 -338 1371 -786 178 -239 297
-516 353 -823 31 -165 31 -494 0 -660 -74 -407 -256 -755 -546 -1046 -288
-288 -638 -471 -1046 -546 -165 -31 -494 -31 -660 0 -311 57 -602 184 -851
373 -107 80 -287 260 -367 366 -661 874 -488 2094 390 2749 386 288 884 425
1356 373z"
        />
        <path
            d="M3936 5626 c-54 -20 -68 -45 -46 -86 17 -31 50 -44 135 -51 44 -4
110 -10 148 -14 57 -7 70 -5 87 10 11 10 20 26 20 35 0 70 -241 144 -344 106z"
        />
        <path
            d="M3980 4963 c-125 -20 -191 -117 -160 -235 34 -124 182 -228 324 -228
154 0 274 102 250 213 -17 81 -103 180 -187 217 -54 24 -174 41 -227 33z"
        />
        <path
            d="M2880 4935 c-78 -24 -151 -83 -184 -148 -38 -75 -43 -179 -10 -223
38 -52 70 -68 128 -68 73 1 138 34 208 106 64 65 88 123 88 214 0 65 -15 101
-51 120 -35 18 -120 17 -179 -1z"
        />
        <path
            d="M5077 4610 c-32 -37 -44 -118 -27 -181 14 -53 81 -160 122 -194 21
-18 41 -25 72 -25 54 0 80 19 102 75 34 90 -4 198 -107 307 -41 44 -49 48 -91
48 -39 0 -50 -5 -71 -30z"
        />
        <path
            d="M2060 3952 c-49 -49 -62 -156 -34 -290 30 -145 80 -207 137 -169 38
25 61 105 60 212 0 114 -22 192 -67 239 -40 43 -59 45 -96 8z"
        />
        <path
            d="M3881 3817 c-47 -15 -135 -99 -162 -155 -31 -64 -31 -158 1 -226 50
-105 138 -160 255 -160 83 0 134 23 199 87 55 55 79 108 84 185 4 55 1 71 -27
127 -36 73 -84 117 -150 140 -50 17 -149 18 -200 2z"
        />
        <path
            d="M5525 3387 c-24 -37 -72 -177 -85 -246 -10 -56 -9 -65 6 -82 9 -10
29 -19 44 -19 25 0 29 7 73 138 63 185 70 214 54 224 -26 17 -76 9 -92 -15z"
        />
        <path
            d="M2925 2880 c-84 -13 -145 -69 -145 -136 0 -38 44 -107 100 -158 99
-89 274 -140 349 -102 65 34 81 140 33 217 -78 122 -219 196 -337 179z"
        />
        <path
            d="M4479 2641 c-142 -45 -252 -181 -232 -286 7 -36 58 -75 97 -75 96 0
256 70 333 146 66 65 83 115 58 168 -10 20 -30 43 -46 51 -38 20 -141 18 -210
-4z"
        />
    </g>
</svg>
