<svg version="1.0" xmlns="http://www.w3.org/2000/svg" viewBox="0 0 256 200">
    <g transform="translate(-38,280) scale(0.13,-0.13)" fill="currentColor" stroke="none">
        <path
            d="M554 1926 c-96 -24 -175 -92 -220 -189 l-26 -59 -1 -519 c0 -341 3 -523 10 -530 6 -6 48 -9 99 -7 l89 3 80 140 80 140 615 0 615 0 80 -140 80 -140 89 -3 c51 -2 94 2 99 7 7 7 10 191 10 529 l0 518 -28 62 c-34 75 -111 151 -182 178 -45 18 -94 19 -743 21 -529 1 -707 -1 -746 -11z m1479 -59 c58 -27 122 -92 148 -150 l24 -52 0 -495 0 -495 -52 -3 c-29 -2 -54 1 -54 5 -1 4 -3 227 -4 494 -1 483 -2 486 -24 522 -12 20 -39 46 -59 59 l-37 23 -695 0 -695 0 -37 -23 c-20 -13 -47 -39 -59 -59 -22 -36 -22 -39 -24 -517 -1 -265 -2 -487 -3 -494 -2 -9 -17 -12 -54 -10 l-53 3 0 495 1 495 23 52 c36 81 107 140 196 163 17 5 343 8 725 7 645 -2 698 -3 733 -20z m-1407 -539 l-1 -393 -53 -92 c-30 -51 -55 -93 -56 -93 -2 0 -2 199 -2 443 1 396 3 445 18 473 16 29 74 68 89 59 3 -2 5 -181 5 -397z m179 330 l1 -68 -63 0 c-57 0 -63 2 -67 23 -4 18 -2 105 3 115 0 2 29 2 64 0 l62 -3 0 -67z m182 0 l4 -68 -71 0 -72 0 3 63 c2 34 5 66 7 70 2 4 31 7 65 5 l61 -3 3 -67z m175 60 c3 -7 4 -38 4 -68 l-1 -55 -62 -3 c-52 -2 -62 0 -66 15 -6 25 -7 105 -1 115 9 13 121 10 126 -4z m182 -58 l0 -65 -64 0 -63 0 -2 60 c-2 33 0 64 2 68 3 4 32 7 66 5 l62 -3 -1 -65z m183 20 c3 -88 1 -91 -70 -88 l-62 3 0 60 c0 33 1 64 3 68 2 4 31 7 65 5 l62 -3 2 -45z m180 -22 l5 -68 -66 0 c-35 0 -68 5 -71 11 -4 5 -4 37 0 70 l7 60 61 -3 60 -3 4 -67z m180 22 c4 -86 1 -90 -71 -90 l-63 0 2 68 c1 37 3 68 4 70 0 2 29 2 63 0 l62 -3 3 -45z m123 9 c22 -22 30 -41 34 -82 5 -50 5 -857 0 -857 -1 0 -26 42 -56 93 l-53 92 -1 390 c-1 215 0 393 2 397 7 12 45 -5 74 -33z m-1205 -238 l0 -85 -62 -2 -62 -2 -5 31 c-4 28 -3 91 2 135 2 9 19 12 64 10 l62 -3 1 -84z m179 -1 l-1 -85 -64 0 -64 0 -1 80 c-1 44 0 84 3 88 3 4 32 7 66 5 l62 -3 -1 -85z m180 0 l-1 -85 -64 0 -64 0 -1 60 c-1 33 0 73 3 88 5 27 6 28 66 25 l62 -3 -1 -85z m181 0 l0 -85 -65 0 -65 0 -1 80 c0 44 2 84 4 88 2 4 31 7 65 5 l62 -3 0 -85z m178 63 c2 -16 4 -55 3 -88 l-1 -60 -64 0 -65 0 -3 65 c-5 106 -3 110 66 110 56 0 59 -1 64 -27z m182 -63 l-1 -85 -64 0 -65 0 -1 80 c-1 44 0 84 3 88 3 4 32 7 66 5 l62 -3 0 -85z m179 63 c3 -16 4 -55 3 -88 l-3 -60 -64 0 -65 0 -1 80 c0 44 1 83 3 88 3 4 31 7 63 7 56 0 59 -1 64 -27z m-1079 -283 l-1 -85 -63 0 -64 0 -3 79 c-2 43 -1 82 1 86 2 3 32 6 67 5 l63 0 0 -85z m183 30 c1 -30 0 -70 -3 -88 l-6 -33 -62 3 -62 3 -2 75 c-1 41 -1 80 2 86 2 7 27 11 66 10 l63 -1 4 -55z m178 0 c3 -30 2 -70 -1 -88 l-6 -33 -62 3 -61 3 -3 75 c-1 41 -1 80 1 86 3 7 29 11 66 10 l63 -1 3 -55z m179 -30 l0 -85 -65 0 -65 0 -1 80 c-1 44 0 82 2 85 1 3 31 6 66 5 l63 0 0 -85z m180 0 l0 -85 -62 -3 -62 -3 -5 33 c-5 26 -2 139 3 144 0 1 29 1 64 0 l62 -1 0 -85z m179 0 l1 -85 -62 -3 c-58 -3 -63 -1 -68 20 -4 17 -1 148 4 154 1 0 29 0 63 0 l62 -1 0 -85z m181 0 l0 -85 -65 0 -65 0 -1 80 c-1 44 0 82 2 85 1 3 31 6 66 5 l63 0 0 -85z m-1083 -152 c2 -7 4 -38 4 -68 l-1 -54 -35 -2 c-19 -2 -49 -1 -66 2 l-31 4 2 63 c2 34 3 63 4 65 0 1 28 2 60 2 38 0 60 -4 63 -12z m183 -58 l-1 -65 -64 0 -64 0 -2 60 c-1 33 0 64 3 68 3 4 32 7 66 5 l62 -3 0 -65z m180 0 l0 -65 -65 0 -65 0 -2 55 c-2 81 -2 81 69 78 l63 -3 0 -65z m179 23 c11 -84 8 -88 -65 -88 -60 0 -64 2 -67 24 -2 13 -1 44 3 68 l6 43 59 0 58 0 6 -47z m180 -23 l1 -65 -65 0 -65 0 -2 55 c-3 80 -2 81 69 78 l62 -3 0 -65z m181 0 l0 -65 -64 0 -65 0 -2 60 c-1 33 1 64 3 68 3 4 32 7 66 5 l62 -3 0 -65z m180 0 l0 -65 -65 0 -65 1 0 54 c-1 82 -1 81 69 78 l61 -3 0 -65z"
        />
    </g>
</svg>
