
<svg
    viewBox="0 0 752 752"
>
    <g transform="translate(-525,1275) scale(0.24,-0.24)" fill="currentColor" stroke="none">
        <path
            d="M3735 5279 c-337 -26 -659 -149 -839 -319 -80 -76 -124 -144 -172 -262 -18 -46 -45 -93 -64 -111 -53 -52 -64 -83 -65 -182 -1 -69 -10 -124 -38 -235 -72 -282 -96 -568 -62 -746 8 -44 38 -156 65 -249 88 -294 90 -305 100 -572 5 -134 14 -260 19 -281 17 -60 53 -87 112 -85 105 3 262 66 473 192 65 39 121 71 125 71 3 0 26 -32 51 -70 52 -82 106 -117 164 -106 43 8 301 167 343 211 39 41 49 96 34 193 -6 39 -11 94 -11 121 l0 51 103 66 c232 151 380 226 511 260 145 37 286 136 351 248 77 133 105 278 105 555 0 214 -15 348 -56 489 -37 126 -41 132 -108 156 l-59 21 -17 100 c-27 159 -82 320 -122 352 -22 19 -256 81 -388 103 -109 19 -359 41 -425 38 -16 0 -75 -4 -130 -9z m340 -99 c195 -18 503 -82 542 -112 21 -16 54 -117 79 -237 13 -63 22 -116 21 -117 -1 -1 -38 4 -82 11 -276 44 -712 72 -752 48 -27 -16 -30 -45 -7 -67 11 -12 36 -16 92 -16 226 0 687 -53 843 -96 l57 -16 22 -74 c50 -170 72 -445 51 -654 -19 -201 -57 -305 -142 -395 -64 -68 -114 -98 -221 -131 -45 -14 -144 -48 -218 -74 -183 -65 -332 -100 -676 -160 -342 -58 -534 -98 -552 -113 -17 -14 -11 -57 10 -70 12 -8 67 -1 205 26 103 20 282 53 397 72 116 20 228 40 249 45 22 4 35 5 31 1 -19 -17 -324 -222 -337 -227 -9 -3 -28 17 -55 60 -30 48 -47 66 -63 66 -12 0 -81 -37 -153 -82 -127 -80 -166 -110 -166 -126 0 -4 20 -41 44 -82 l45 -74 -97 -60 c-186 -115 -370 -196 -443 -196 -35 0 -39 22 -39 199 0 188 -15 331 -49 464 -16 61 -29 112 -28 113 1 0 27 19 57 42 101 74 205 118 386 162 278 68 365 110 439 212 49 65 97 175 116 263 8 36 14 127 14 230 0 194 -8 222 -85 288 -101 86 -239 111 -627 111 l-293 1 0 32 c0 22 10 44 29 65 l29 33 234 -1 c351 -2 557 -28 676 -85 103 -50 139 -117 162 -304 19 -149 -5 -332 -68 -519 l-36 -108 23 -19 c29 -24 36 -24 59 -1 22 22 74 175 99 292 28 131 25 388 -5 493 -29 103 -52 146 -101 190 -115 104 -308 145 -743 156 l-248 6 39 80 c69 139 152 216 336 308 250 125 571 177 900 147z m-1149 -929 l-68 -68 -84 37 c-47 21 -87 40 -90 43 -3 2 -2 16 2 31 l6 26 151 0 151 0 -68 -69z m465 44 c67 -14 176 -61 165 -72 -3 -3 -81 -65 -173 -138 -156 -123 -169 -132 -188 -119 -11 8 -73 50 -138 93 l-117 79 97 92 98 92 95 -6 c52 -4 125 -13 161 -21z m-636 -170 l36 -16 -59 -72 c-32 -40 -76 -96 -97 -125 -20 -29 -39 -51 -41 -49 -5 4 18 132 42 239 l16 68 34 -15 c19 -8 50 -22 69 -30z m851 -130 c-3 -67 -11 -149 -17 -181 -11 -61 -56 -184 -68 -184 -3 0 -17 17 -31 38 -14 20 -65 78 -113 129 l-88 91 118 94 c171 137 186 147 196 141 6 -4 7 -55 3 -128z m-641 14 c44 -28 101 -67 127 -86 l47 -34 -87 -76 c-48 -42 -119 -107 -158 -145 l-71 -69 -35 20 c-19 12 -68 33 -109 47 -41 14 -75 27 -77 28 -8 8 262 366 276 366 4 0 43 -23 87 -51z m342 -272 c44 -46 96 -108 116 -137 33 -49 35 -56 21 -71 -26 -28 -144 -77 -262 -107 l-113 -29 -82 80 -81 81 55 49 c142 129 245 217 255 217 6 0 47 -37 91 -83z m-675 -156 c30 -10 69 -26 87 -35 l32 -17 -72 -79 c-40 -44 -74 -78 -76 -76 -6 5 -33 176 -33 204 0 27 -5 26 62 3z m297 -185 c14 -14 23 -27 20 -29 -2 -2 -34 -16 -71 -31 -37 -15 -104 -52 -148 -81 -78 -52 -80 -52 -86 -30 -8 31 -4 36 99 154 l89 101 36 -29 c20 -16 48 -41 61 -55z m651 -606 c37 -58 35 -82 -8 -131 -27 -31 -92 -53 -124 -43 -20 6 -83 102 -74 112 6 5 163 107 172 111 1 1 16 -22 34 -49z m306 -87 c6 -83 4 -100 -9 -111 -9 -8 -24 -12 -34 -10 -18 3 -115 136 -110 150 1 4 31 28 67 52 47 32 67 40 72 31 4 -7 11 -57 14 -112z m-136 -184 c0 -15 -151 -100 -172 -97 -19 3 -77 70 -78 90 0 4 19 12 43 19 28 7 56 26 87 58 l45 47 37 -56 c21 -30 38 -58 38 -61z"
        />
    </g>
</svg>
