<svg fill="currentColor" viewBox="0 0 297 297">
    <g>
        <path
            d="M254.603,0H130.586c-20.781,0-42.461,3.412-61.044,9.607l-21.799,7.267c-5.676,1.891-10.245,6.146-12.535,11.673   c-2.29,5.527-2.069,11.767,0.607,17.118c4.357,8.713,13.996,13.149,23.451,10.787l21.658-5.415   c6.344-1.586,12.876-2.39,19.415-2.39h26.425l-18.248,9.124c-10.277,5.141-14.458,17.685-9.319,27.964   c3.61,7.218,11.035,11.501,18.738,11.501c2.521-0.001,5.073-0.46,7.528-1.425l63.807-23.701   c7.017-2.607,13.258-6.612,18.551-11.904c0.245-0.245,0.596-0.351,0.937-0.279l44.038,9.281c2.586,0.546,5.275-0.106,7.326-1.769   c2.051-1.664,3.242-4.163,3.242-6.804V8.761C263.364,3.922,259.442,0,254.603,0z M245.842,49.835l-33.47-7.054   c-6.161-1.298-12.493,0.585-16.942,5.034c-3.498,3.498-7.624,6.146-12.262,7.869l-63.893,23.733   c-0.068,0.025-0.136,0.051-0.203,0.078c-1.585,0.636-3.436-0.064-4.203-1.599c-0.818-1.637-0.152-3.636,1.484-4.455l27.148-13.573   c5.174-2.586,8.388-7.787,8.388-13.571c0-8.366-6.806-15.173-15.173-15.173h-36.378c-7.969,0-15.931,0.98-23.664,2.913   l-21.659,5.415c-1.425,0.362-2.873-0.313-3.529-1.624c-0.551-1.102-0.294-2.087-0.091-2.575c0.202-0.489,0.717-1.367,1.886-1.757   l21.8-7.267c16.845-5.615,36.557-8.708,55.504-8.708h115.257V49.835z" />
        <path
            d="M196.014,162.148c-10.278-5.141-22.825-0.959-27.964,9.32l-9.124,18.248V163.29c0-6.538,0.804-13.071,2.391-19.415   l5.415-21.659c2.361-9.451-2.074-19.094-10.786-23.45c-5.352-2.677-11.592-2.899-17.118-0.607   c-5.528,2.289-9.783,6.858-11.675,12.534l-7.267,21.799c-6.194,18.586-9.606,40.265-9.606,61.045v94.702   c0,4.839,3.922,8.761,8.761,8.761h50.015c3.042,0,5.865-1.578,7.46-4.168c1.594-2.59,1.732-5.822,0.362-8.538l-6.632-13.153   c0.05-0.138,0.13-0.264,0.238-0.371c5.293-5.293,9.298-11.535,11.904-18.55l23.701-63.805   C210.005,178.457,205.595,166.938,196.014,162.148z M189.776,182.024c-0.027,0.068-0.053,0.135-0.078,0.202l-23.733,63.893   c-1.699,4.572-4.419,8.812-7.869,12.261c-4.449,4.45-6.331,10.782-5.035,16.94c0.156,0.743,0.408,1.462,0.75,2.14l1.017,2.017   h-27.025v-85.941c0-18.947,3.092-38.659,8.707-55.505l7.267-21.799c0.39-1.169,1.268-1.684,1.757-1.886   c0.489-0.204,1.473-0.461,2.576,0.091c1.312,0.656,1.979,2.108,1.624,3.53l-5.415,21.657c-1.934,7.732-2.914,15.694-2.914,23.665   v36.378c0,8.366,6.806,15.173,15.173,15.173c5.786,0,10.985-3.215,13.571-8.387l13.574-27.148c0.818-1.638,2.815-2.304,4.455-1.485   C189.711,178.586,190.412,180.433,189.776,182.024z" />
    </g>
</svg>